<svg width="1024" height="1024" xmlns="http://www.w3.org/2000/svg">

 <g>
  <title>background</title>
  <rect fill="none" id="canvas_background" height="402" width="582" y="-1" x="-1"/>
 </g>
 <g>
  <title>Layer 1</title>
  <path id="svg_1" fill="#ffffff" d="m983.766,312.727c-25.785,-60.972 -62.694,-115.728 -109.705,-162.744c-47.011,-47.017 -101.762,-83.934 -162.732,-109.726c-63.135,-26.709 -130.189,-40.253 -199.329,-40.257c-69.104,0 -136.155,13.54 -199.289,40.243c-60.969,25.787 -115.721,62.699 -162.735,109.71c-47.014,47.011 -83.929,101.761 -109.72,162.728c-26.708,63.133 -40.252,130.184 -40.256,199.289c-0.004,69.109 13.533,136.165 40.234,199.304c25.785,60.973 62.696,115.728 109.707,162.743c47.011,47.018 101.762,83.935 162.732,109.727c63.136,26.708 130.19,40.253 199.323,40.257l0.009,0c69.104,0 136.153,-13.54 199.288,-40.243c60.969,-25.787 115.72,-62.699 162.733,-109.709c47.013,-47.01 83.929,-101.76 109.72,-162.728c26.708,-63.134 40.251,-130.186 40.255,-199.29c0.003,-69.11 -13.534,-136.165 -40.235,-199.304zm-471.762,663.601l-0.03,0c-124.026,-0.007 -240.627,-48.313 -328.323,-136.019c-87.694,-87.705 -135.986,-204.31 -135.979,-328.336c0.015,-256.016 208.312,-464.3 464.356,-464.3c124.026,0.007 240.626,48.312 328.32,136.017c87.695,87.706 135.986,204.311 135.979,328.337c-0.014,256.016 -208.309,464.301 -464.323,464.301z"/>
  <path stroke="#262626" id="Facebook_1_" fill="#ffffff" d="m672.75,305.64l0,-101.75c-3.736,0 -7.473,-0.007 -11.209,0.001c-8.996,0.02 -17.993,-0.022 -26.99,0.001c-10.972,0.028 -21.942,-0.046 -32.915,0.001c-9.667,0.042 -19.337,-0.097 -29.003,0.003c-14.592,0.151 -28.443,0.868 -42.438,5.375c-13.493,4.346 -26.158,11.955 -36.948,21.081c-6.248,5.284 -12.031,10.943 -17.269,17.234c-2.121,2.613 -4.097,5.33 -5.942,8.14c-5.538,8.431 -9.913,17.704 -13.567,27.535c-0.821,2.213 -1.628,4.432 -2.397,6.662c-5.634,16.324 -5.82,34.143 -5.82,51.297c0,2.148 0,4.363 0,6.629c0,33.984 0,79.291 0,79.291l-97,0l0,112l93.5,0l2.5,0l0,281l111,0l0,-283.5l100.748,1.359l13.583,-110.125l-113.833,-0.234l0,-85c0,0 -0.25,-36.25 30.5,-36.75l83.5,-0.25z"/>
 </g>
</svg>