<svg width="1024" height="1024" xmlns="http://www.w3.org/2000/svg">

 <g>
  <title>background</title>
  <rect fill="none" id="canvas_background" height="402" width="582" y="-1" x="-1"/>
 </g>
 <g>
  <title>Layer 1</title>
  <path id="svg_1" fill="#ffffff" d="m983.766,312.727c-25.785,-60.972 -62.694,-115.728 -109.705,-162.744c-47.011,-47.017 -101.762,-83.934 -162.732,-109.726c-63.135,-26.709 -130.189,-40.253 -199.329,-40.257c-69.104,0 -136.155,13.54 -199.289,40.243c-60.969,25.787 -115.721,62.699 -162.735,109.71c-47.014,47.011 -83.929,101.761 -109.72,162.728c-26.708,63.133 -40.252,130.184 -40.256,199.289c-0.004,69.109 13.533,136.165 40.234,199.304c25.785,60.973 62.696,115.728 109.707,162.743c47.011,47.018 101.762,83.935 162.732,109.727c63.136,26.708 130.19,40.253 199.323,40.257l0.009,0c69.104,0 136.153,-13.54 199.288,-40.243c60.969,-25.787 115.72,-62.699 162.733,-109.709c47.013,-47.01 83.929,-101.76 109.72,-162.728c26.708,-63.134 40.251,-130.186 40.255,-199.29c0.003,-69.11 -13.534,-136.165 -40.235,-199.304zm-471.762,663.601l-0.03,0c-124.026,-0.007 -240.627,-48.313 -328.323,-136.019c-87.694,-87.705 -135.986,-204.31 -135.979,-328.336c0.015,-256.016 208.312,-464.3 464.356,-464.3c124.026,0.007 240.626,48.312 328.32,136.017c87.695,87.706 135.986,204.311 135.979,328.337c-0.014,256.016 -208.309,464.301 -464.323,464.301z"/>
  <circle id="svg_2" r="33.136" fill="#ffffff" cy="364.563" cx="658.765"/>
  <path id="svg_3" fill="#ffffff" d="m512,655.912c-79.354,0 -143.912,-64.56 -143.912,-143.912c0,-79.354 64.559,-143.912 143.912,-143.912s143.913,64.559 143.913,143.912c0,79.354 -64.559,143.912 -143.913,143.912zm0,-242.824c-54.54,0 -98.912,44.372 -98.912,98.912s44.372,98.912 98.912,98.912c54.541,0 98.913,-44.372 98.913,-98.912s-44.372,-98.912 -98.913,-98.912z"/>
  <path id="svg_4" fill="#ffffff" d="m603.643,800.006l-183.285,0c-103.389,0 -187.5,-84.112 -187.5,-187.5l0,-201.011c0,-103.388 84.112,-187.5 187.5,-187.5l183.283,0c103.389,0 187.5,84.112 187.5,187.5l0,201.011c0.002,103.388 -84.111,187.5 -187.498,187.5zm-183.285,-531.011c-78.575,0 -142.5,63.925 -142.5,142.5l0,201.011c0,78.575 63.925,142.5 142.5,142.5l183.283,0c78.575,0 142.5,-63.925 142.5,-142.5l0,-201.011c0,-78.575 -63.925,-142.5 -142.5,-142.5l-183.283,0z"/>
 </g>
</svg>